<svg width="1024" height="1024" viewBox="0 0 1024 1024" xmlns="http://www.w3.org/2000/svg">
  <defs>
      <linearGradient id="bg" x1="0%" y1="0%" x2="100%" y2="100%">
        <stop offset="0%" stop-color="#2D3748" />
        <stop offset="100%" stop-color="#1A202C" />
      </linearGradient>
  </defs>
  <rect width="1024" height="1024" rx="224" fill="url(#bg)" />
  <!-- Minimalist lotus/zen leaves -->
  <g transform="translate(512, 512) scale(1.2) translate(-512, -512)" fill="none" stroke="#E2E8F0" stroke-width="28" stroke-linecap="round" stroke-linejoin="round">
    <path d="M512 700 C512 700 300 650 300 450 C300 350 400 300 512 350 C624 300 724 350 724 450 C724 650 512 700 512 700 Z" />
    <path d="M512 700 C512 700 380 680 380 500 C380 430 450 380 512 400 C574 380 644 430 644 500 C644 680 512 700 512 700 Z" fill="#E2E8F0" fill-opacity="0.1" />
    <path d="M512 400 L512 650" />
  </g>
</svg>
